<svg width="32" height="32" viewBox="0 0 32 32" fill="none" xmlns="http://www.w3.org/2000/svg">
<path d="M3 11V5.5C3 4.12 4.12 3 5.5 3H11" stroke="#d4a55a" stroke-width="2" stroke-linecap="round"/>
<path d="M21 3H26.5C27.88 3 29 4.12 29 5.5V11" stroke="#d4a55a" stroke-width="2" stroke-linecap="round"/>
<path d="M29 21V26.5C29 27.88 27.88 29 26.5 29H21" stroke="#d4a55a" stroke-width="2" stroke-linecap="round"/>
<path d="M11 29H5.5C4.12 29 3 27.88 3 26.5V21" stroke="#d4a55a" stroke-width="2" stroke-linecap="round"/>
<path d="M14.5 21.5H11.75C11.06 21.5 10.5 20.94 10.5 20.25V17.5" stroke="#d4a55a" stroke-width="2" stroke-linecap="round"/>
<path d="M17.5 21.5H20.25C20.94 21.5 21.5 20.94 21.5 20.25V17.5" stroke="#d4a55a" stroke-width="2" stroke-linecap="round"/>
<path d="M13.5003 21.5H16.2503M16.2503 21.5C16.9403 21.5 19 21.5 16.2503 21.5Z" stroke="#d4a55a" stroke-width="2" stroke-linecap="round"/>
<path d="M14.4922 10.5H11.7422C11.0522 10.5 10.4922 11.06 10.4922 11.75V14.5" stroke="#d4a55a" stroke-width="2" stroke-linecap="round"/>
<path d="M17.4922 10.5H20.2422C20.9322 10.5 21.4922 11.06 21.4922 11.75V14.5" stroke="#d4a55a" stroke-width="2" stroke-linecap="round"/>
<path d="M7.50034 17.5H10.2503M10.2503 17.5C10.9403 17.5 13 17.5 10.2503 17.5Z" stroke="#d4a55a" stroke-width="2" stroke-linecap="round"/>
<path d="M24.6403 17.5H21.8903M21.8903 17.5C21.2003 17.5 19.1406 17.5 21.8903 17.5Z" stroke="#d4a55a" stroke-width="2" stroke-linecap="round"/>
<path d="M11.5 17.5H18.1421M18.1421 17.5C19.8086 17.5 24.7833 17.5 18.1421 17.5Z" stroke="#d4a55a" stroke-width="2" stroke-linecap="round"/>
<path d="M13.5003 10.5H16.2503M16.2503 10.5C16.9403 10.5 19 10.5 16.2503 10.5Z" stroke="#d4a55a" stroke-width="2" stroke-linecap="round"/>
</svg>
