<svg width="114" height="25" viewBox="0 0 114 25" fill="none" xmlns="http://www.w3.org/2000/svg">
<path d="M48.3395 19.2188C48.3395 16.1812 50.8019 13.7188 53.8395 13.7188H67.8395C70.8771 13.7188 73.3395 16.1812 73.3395 19.2188C73.3395 22.2563 70.8771 24.7188 67.8395 24.7188H53.8395C50.8019 24.7188 48.3395 22.2563 48.3395 19.2188Z" fill="url(#paint0_radial_mono)"/>
<path d="M53.8988 21.7188V16.6278H55.7631C56.1244 16.6278 56.4235 16.6875 56.6605 16.8068C56.8975 16.9245 57.0748 17.0844 57.1925 17.2866C57.3101 17.4871 57.369 17.7133 57.369 17.9652C57.369 18.1773 57.33 18.3563 57.2521 18.5021C57.1742 18.6463 57.0698 18.7623 56.9389 18.8501C56.8097 18.9363 56.6671 18.9993 56.5114 19.0391V19.0888C56.6804 19.0971 56.8453 19.1518 57.006 19.2528C57.1684 19.3523 57.3027 19.494 57.4087 19.6779C57.5148 19.8619 57.5678 20.0856 57.5678 20.3491C57.5678 20.6093 57.5065 20.8429 57.3839 21.0501C57.2629 21.2556 57.0756 21.4188 56.8221 21.5398C56.5685 21.6591 56.2446 21.7188 55.8501 21.7188H53.8988ZM54.6669 21.06H55.7756C56.1435 21.06 56.407 20.9888 56.5661 20.8462C56.7251 20.7037 56.8047 20.5256 56.8047 20.3118C56.8047 20.151 56.7641 20.0036 56.6829 19.8693C56.6017 19.7351 56.4857 19.6282 56.3349 19.5487C56.1857 19.4691 56.0084 19.4293 55.8029 19.4293H54.6669V21.06ZM54.6669 18.8303H55.696C55.8684 18.8303 56.0233 18.7971 56.1609 18.7308C56.3001 18.6645 56.4103 18.5717 56.4915 18.4524C56.5743 18.3314 56.6158 18.1889 56.6158 18.0249C56.6158 17.8144 56.542 17.6379 56.3945 17.4954C56.247 17.3529 56.0208 17.2816 55.7159 17.2816H54.6669V18.8303Z" fill="white"/>
<path d="M59.7148 21.7958C59.3386 21.7958 59.0146 21.7154 58.7429 21.5547C58.4727 21.3923 58.2639 21.1644 58.1164 20.8711C57.9706 20.5761 57.8977 20.2306 57.8977 19.8345C57.8977 19.4434 57.9706 19.0987 58.1164 18.8004C58.2639 18.5021 58.4694 18.2693 58.7329 18.1019C58.9981 17.9345 59.308 17.8509 59.6626 17.8509C59.878 17.8509 60.0869 17.8865 60.289 17.9577C60.4912 18.029 60.6727 18.1409 60.8334 18.2933C60.9942 18.4458 61.1209 18.6438 61.2137 18.8874C61.3065 19.1294 61.3529 19.4235 61.3529 19.7699V20.0334H58.3178V19.4766H60.6246C60.6246 19.281 60.5848 19.1078 60.5053 18.957C60.4257 18.8046 60.3139 18.6844 60.1697 18.5966C60.0272 18.5088 59.8598 18.4648 59.6676 18.4648C59.4588 18.4648 59.2765 18.5162 59.1207 18.619C58.9666 18.7201 58.8473 18.8526 58.7627 19.0167C58.6799 19.1791 58.6385 19.3556 58.6385 19.5462V19.9812C58.6385 20.2364 58.6832 20.4535 58.7727 20.6325C58.8638 20.8114 58.9906 20.9482 59.153 21.0426C59.3154 21.1354 59.5052 21.1818 59.7223 21.1818C59.8631 21.1818 59.9916 21.1619 60.1076 21.1222C60.2236 21.0807 60.3238 21.0194 60.4083 20.9382C60.4929 20.857 60.5575 20.7567 60.6022 20.6374L61.3057 20.7642C61.2494 20.9714 61.1483 21.1528 61.0024 21.3086C60.8583 21.4627 60.6768 21.5829 60.4581 21.669C60.241 21.7536 59.9932 21.7958 59.7148 21.7958Z" fill="white"/>
<path d="M63.6099 17.9006V18.4972H61.5243V17.9006H63.6099ZM62.0836 16.9858H62.8269V20.5977C62.8269 20.7418 62.8484 20.8504 62.8915 20.9233C62.9346 20.9946 62.9901 21.0434 63.0581 21.07C63.1277 21.0948 63.2031 21.1072 63.2843 21.1072C63.3439 21.1072 63.3961 21.1031 63.4409 21.0948C63.4856 21.0865 63.5204 21.0799 63.5453 21.0749L63.6795 21.6889C63.6364 21.7055 63.5751 21.7221 63.4956 21.7386C63.416 21.7569 63.3166 21.7668 63.1973 21.7685C63.0017 21.7718 62.8194 21.737 62.6504 21.6641C62.4814 21.5911 62.3447 21.4785 62.2403 21.326C62.1359 21.1735 62.0836 20.9821 62.0836 20.7518V16.9858Z" fill="white"/>
<path d="M65.1933 21.8033C64.9513 21.8033 64.7326 21.7585 64.537 21.669C64.3415 21.5779 64.1865 21.4461 64.0722 21.2738C63.9595 21.1014 63.9031 20.8902 63.9031 20.6399C63.9031 20.4245 63.9446 20.2472 64.0274 20.108C64.1103 19.9687 64.2221 19.8585 64.363 19.7773C64.5039 19.6961 64.6613 19.6348 64.8353 19.5934C65.0093 19.552 65.1866 19.5205 65.3673 19.4989C65.5959 19.4724 65.7816 19.4509 65.9241 19.4343C66.0666 19.4161 66.1702 19.3871 66.2348 19.3473C66.2994 19.3075 66.3317 19.2429 66.3317 19.1534V19.136C66.3317 18.9189 66.2704 18.7507 66.1478 18.6314C66.0268 18.5121 65.8462 18.4524 65.6059 18.4524C65.3557 18.4524 65.1585 18.5079 65.0143 18.619C64.8718 18.7283 64.7732 18.8501 64.7185 18.9844L64.02 18.8253C64.1028 18.5933 64.2238 18.406 64.3829 18.2635C64.5436 18.1193 64.7284 18.0149 64.9372 17.9503C65.146 17.884 65.3656 17.8509 65.596 17.8509C65.7484 17.8509 65.91 17.8691 66.0807 17.9055C66.253 17.9403 66.4138 18.005 66.5629 18.0994C66.7137 18.1939 66.8372 18.329 66.9333 18.5046C67.0294 18.6786 67.0775 18.9048 67.0775 19.1832V21.7188H66.3516V21.1967H66.3218C66.2737 21.2929 66.2017 21.3873 66.1055 21.4801C66.0094 21.5729 65.886 21.65 65.7352 21.7113C65.5843 21.7726 65.4037 21.8033 65.1933 21.8033ZM65.3548 21.2067C65.5603 21.2067 65.736 21.1661 65.8818 21.0849C66.0293 21.0037 66.1412 20.8976 66.2174 20.7667C66.2953 20.6341 66.3342 20.4924 66.3342 20.3416V19.8494C66.3077 19.8759 66.2563 19.9008 66.1801 19.924C66.1055 19.9455 66.0202 19.9646 65.9241 19.9812C65.828 19.9961 65.7343 20.0102 65.6432 20.0234C65.552 20.035 65.4758 20.045 65.4145 20.0533C65.2703 20.0715 65.1386 20.1022 65.0192 20.1452C64.9016 20.1883 64.8071 20.2505 64.7359 20.3317C64.6663 20.4112 64.6315 20.5173 64.6315 20.6499C64.6315 20.8338 64.6994 20.973 64.8353 21.0675C64.9712 21.1603 65.1444 21.2067 65.3548 21.2067Z" fill="white"/>
<path d="M4.81286 13.7188C5.97762 13.7188 6.95172 13.9911 7.73532 14.5359C8.4458 15.0204 8.91692 15.6771 9.14855 16.5062C9.1885 16.649 9.09306 16.7914 8.9463 16.821L6.90514 17.2323C6.75852 17.2619 6.61759 17.167 6.57042 17.0265C6.45399 16.6797 6.25466 16.4048 5.9723 16.2016C5.62293 15.9397 5.2258 15.8088 4.78107 15.8088C4.35756 15.8088 4.01344 15.9135 3.74872 16.123C3.48399 16.3221 3.35167 16.5735 3.35167 16.8773C3.35167 17.3383 3.63753 17.6316 4.20934 17.7573L6.41703 18.2445C8.36531 18.674 9.33949 19.6954 9.33949 21.3087C9.33949 22.3878 8.92123 23.2259 8.08477 23.823C7.24824 24.4202 6.20523 24.7188 4.95583 24.7188C3.71693 24.7188 2.66335 24.4411 1.79511 23.8859C1.00954 23.3678 0.526024 22.6651 0.344487 21.7778C0.316053 21.6389 0.41207 21.5076 0.552707 21.4806L2.74887 21.0588C2.8906 21.0316 3.02745 21.1203 3.07397 21.2557C3.37434 22.1291 4.04924 22.5659 5.09873 22.5659C5.58582 22.5659 5.96705 22.4664 6.24234 22.2673C6.52821 22.0683 6.67118 21.8064 6.67118 21.4816C6.67118 21.2302 6.59703 21.0311 6.44881 20.8845C6.31117 20.7378 6.05701 20.6278 5.68643 20.5545L3.46285 20.0831C1.55685 19.6535 0.603888 18.6373 0.603888 17.0345C0.603888 16.0183 0.990367 15.2116 1.76332 14.6145C2.53635 14.0173 3.55282 13.7188 4.81286 13.7188Z" fill="white"/>
<path d="M13.3612 16.7188C14.4703 16.7188 15.4106 17.0918 16.1822 17.8378C16.9537 18.5839 17.3395 19.5417 17.3395 20.7112C17.3395 21.8908 16.9537 22.8536 16.1822 23.5997C15.4106 24.3457 14.4703 24.7188 13.3612 24.7188C12.2328 24.7188 11.278 24.3457 10.4969 23.5997C9.7253 22.8536 9.33949 21.8908 9.33949 20.7112C9.33949 19.5417 9.7253 18.5839 10.4969 17.8378C11.278 17.0918 12.2328 16.7188 13.3612 16.7188ZM13.3612 22.6772C13.8338 22.6772 14.2436 22.4957 14.5909 22.1327C14.938 21.7597 15.1116 21.2859 15.1116 20.7112C15.1116 20.1365 14.9332 19.6677 14.5764 19.3048C14.2291 18.9317 13.8241 18.7452 13.3612 18.7452C12.879 18.7452 12.4595 18.9317 12.1026 19.3048C11.7457 19.6677 11.5674 20.1365 11.5674 20.7112C11.5674 21.2859 11.741 21.7597 12.0881 22.1327C12.445 22.4957 12.8693 22.6772 13.3612 22.6772Z" fill="white"/>
<path d="M17.3395 13.9981C17.3395 13.8438 17.4601 13.7188 17.6087 13.7188H21.5325C23.273 13.7188 24.676 14.2277 25.7414 15.2456C26.8068 16.2526 27.3395 17.577 27.3395 19.2188C27.3395 20.8606 26.8068 22.1904 25.7414 23.2083C24.676 24.2153 23.273 24.7188 21.5325 24.7188H17.6087C17.4601 24.7188 17.3395 24.5937 17.3395 24.4394V13.9981ZM19.9503 22.0916C19.9503 22.246 20.0708 22.371 20.2195 22.371H21.4376C22.4292 22.371 23.2203 22.0864 23.811 21.5173C24.4123 20.9372 24.7129 20.171 24.7129 19.2188C24.7129 18.2665 24.4123 17.5058 23.811 16.9367C23.2203 16.3566 22.4292 16.0665 21.4376 16.0665H20.2195C20.0708 16.0665 19.9503 16.1916 19.9503 16.3459V22.0916Z" fill="white"/>
<path d="M36.0461 22.3874C36.2081 22.3874 36.3395 22.5125 36.3395 22.6668V24.4394C36.3395 24.5937 36.2081 24.7188 36.0461 24.7188H27.6329C27.4709 24.7188 27.3395 24.5937 27.3395 24.4394V13.9981C27.3395 13.8438 27.4709 13.7188 27.6329 13.7188H35.9943C36.1564 13.7188 36.2877 13.8438 36.2877 13.9981V15.7707C36.2877 15.925 36.1564 16.0501 35.9943 16.0501H30.4777C30.3156 16.0501 30.1843 16.1752 30.1843 16.3295V17.8394C30.1843 17.9937 30.3156 18.1188 30.4777 18.1188H35.4943C35.6564 18.1188 35.7878 18.2438 35.7878 18.3982V20.0394C35.7878 20.1937 35.6564 20.3188 35.4943 20.3188H30.4777C30.3156 20.3188 30.1843 20.4439 30.1843 20.5981V22.108C30.1843 22.2623 30.3156 22.3874 30.4777 22.3874H36.0461Z" fill="white"/>
<path d="M43.6618 24.7188C43.5696 24.7188 43.4841 24.6683 43.4358 24.5856L41.5585 21.3646C41.4548 21.1867 41.2092 21.1871 41.1061 21.3653L39.243 24.5848C39.1949 24.668 39.1091 24.7188 39.0166 24.7188H36.605C36.3968 24.7188 36.2698 24.4774 36.3802 24.2913L39.3116 19.3501C39.3652 19.2597 39.3654 19.1449 39.3118 19.0544L36.4103 14.1458C36.3002 13.9597 36.4272 13.7188 36.6353 13.7188H39.0473C39.14 13.7188 39.226 13.7698 39.2741 13.8533L41.1057 17.0365C41.2087 17.2156 41.4553 17.216 41.5588 17.0373L43.4047 13.8525C43.4529 13.7694 43.5386 13.7188 43.6311 13.7188H46.0436C46.2517 13.7188 46.3787 13.9597 46.2688 14.1458L43.3672 19.0544C43.3137 19.1449 43.3137 19.2597 43.3674 19.3501L46.2987 24.2913C46.4092 24.4774 46.2821 24.7188 46.0739 24.7188H43.6618Z" fill="white"/>
<path d="M10.2273 4.90057H7.22301C7.2017 4.65199 7.14489 4.42649 7.05256 4.22408C6.96378 4.02166 6.83949 3.84766 6.67969 3.70206C6.52344 3.55291 6.33345 3.43928 6.10973 3.36115C5.88601 3.27947 5.6321 3.23864 5.34801 3.23864C4.85085 3.23864 4.43004 3.35937 4.08558 3.60085C3.74467 3.84233 3.48544 4.18857 3.30788 4.63956C3.13388 5.09055 3.04688 5.6321 3.04688 6.2642C3.04688 6.93182 3.13565 7.49112 3.31321 7.94212C3.49432 8.38956 3.75533 8.72692 4.09624 8.95419C4.43715 9.17791 4.8473 9.28977 5.3267 9.28977C5.60014 9.28977 5.84517 9.25604 6.06179 9.18857C6.27841 9.11754 6.46662 9.01634 6.62642 8.88494C6.78622 8.75355 6.91584 8.59553 7.01527 8.41087C7.11825 8.22266 7.1875 8.01136 7.22301 7.77699L10.2273 7.7983C10.1918 8.25994 10.0621 8.73047 9.83842 9.20987C9.6147 9.68572 9.29687 10.1261 8.88494 10.5309C8.47656 10.9322 7.97053 11.2553 7.36683 11.5004C6.76314 11.7454 6.06179 11.8679 5.26278 11.8679C4.26136 11.8679 3.36293 11.6531 2.56747 11.2234C1.77557 10.7937 1.14879 10.1616 0.687145 9.32706C0.229048 8.49254 0 7.47159 0 6.2642C0 5.04972 0.234375 4.02699 0.703125 3.19602C1.17188 2.36151 1.80398 1.73118 2.59943 1.30504C3.39489 0.875355 4.28267 0.660511 5.26278 0.660511C5.9517 0.660511 6.58558 0.754616 7.16442 0.942826C7.74325 1.13104 8.25107 1.40625 8.68785 1.76847C9.12464 2.12713 9.47621 2.56925 9.74254 3.09482C10.0089 3.62038 10.1705 4.2223 10.2273 4.90057Z" fill="#a1a1aa"/>
<path d="M14.6553 11.8679C13.7675 11.8679 13.0076 11.6921 12.3755 11.3406C11.7434 10.9854 11.2586 10.4918 10.9213 9.85973C10.5839 9.22408 10.4153 8.48722 10.4153 7.64915C10.4153 6.81108 10.5839 6.07599 10.9213 5.44389C11.2586 4.80824 11.7434 4.31463 12.3755 3.96307C13.0076 3.60795 13.7675 3.4304 14.6553 3.4304C15.5431 3.4304 16.303 3.60795 16.9351 3.96307C17.5672 4.31463 18.052 4.80824 18.3893 5.44389C18.7267 6.07599 18.8954 6.81108 18.8954 7.64915C18.8954 8.48722 18.7267 9.22408 18.3893 9.85973C18.052 10.4918 17.5672 10.9854 16.9351 11.3406C16.303 11.6921 15.5431 11.8679 14.6553 11.8679ZM14.6766 9.6946C14.9252 9.6946 15.14 9.61115 15.3211 9.44425C15.5023 9.27734 15.6425 9.03942 15.742 8.73047C15.8414 8.42152 15.8911 8.05398 15.8911 7.62784C15.8911 7.19815 15.8414 6.83061 15.742 6.52521C15.6425 6.21626 15.5023 5.97834 15.3211 5.81143C15.14 5.64453 14.9252 5.56108 14.6766 5.56108C14.4138 5.56108 14.1883 5.64453 14.0001 5.81143C13.8119 5.97834 13.6681 6.21626 13.5687 6.52521C13.4692 6.83061 13.4195 7.19815 13.4195 7.62784C13.4195 8.05398 13.4692 8.42152 13.5687 8.73047C13.6681 9.03942 13.8119 9.27734 14.0001 9.44425C14.1883 9.61115 14.4138 9.6946 14.6766 9.6946Z" fill="#a1a1aa"/>
<path d="M19.1885 11.7188V3.53693H21.9797V5.09233H22.065C22.2354 4.58097 22.5266 4.17614 22.9385 3.87784C23.3505 3.57955 23.8405 3.4304 24.4087 3.4304C24.984 3.4304 25.4794 3.5831 25.8949 3.88849C26.3104 4.19034 26.5607 4.59162 26.6459 5.09233H26.7312C26.8697 4.59162 27.1644 4.19034 27.6154 3.88849C28.0664 3.5831 28.5955 3.4304 29.2028 3.4304C29.9876 3.4304 30.6232 3.68253 31.1097 4.18679C31.5998 4.69105 31.8448 5.36222 31.8448 6.20028V11.7188H28.9045V6.94602C28.9045 6.58736 28.8139 6.30682 28.6328 6.1044C28.4517 5.89844 28.2084 5.79545 27.903 5.79545C27.6012 5.79545 27.3615 5.89844 27.1839 6.1044C27.0099 6.30682 26.9229 6.58736 26.9229 6.94602V11.7188H24.1104V6.94602C24.1104 6.58736 24.0199 6.30682 23.8388 6.1044C23.6577 5.89844 23.4144 5.79545 23.109 5.79545C22.9066 5.79545 22.7326 5.84162 22.587 5.93395C22.4414 6.02628 22.3278 6.15945 22.2461 6.33345C22.168 6.50391 22.1289 6.7081 22.1289 6.94602V11.7188H19.1885Z" fill="#a1a1aa"/>
<path d="M32.395 11.7188V3.53693H35.1862V5.09233H35.2714C35.4419 4.58097 35.7331 4.17614 36.145 3.87784C36.5569 3.57955 37.047 3.4304 37.6152 3.4304C38.1904 3.4304 38.6858 3.5831 39.1013 3.88849C39.5168 4.19034 39.7672 4.59162 39.8524 5.09233H39.9376C40.0761 4.59162 40.3708 4.19034 40.8218 3.88849C41.2728 3.5831 41.802 3.4304 42.4092 3.4304C43.194 3.4304 43.8297 3.68253 44.3162 4.18679C44.8062 4.69105 45.0512 5.36222 45.0512 6.20028V11.7188H42.1109V6.94602C42.1109 6.58736 42.0203 6.30682 41.8392 6.1044C41.6581 5.89844 41.4149 5.79545 41.1095 5.79545C40.8076 5.79545 40.5679 5.89844 40.3904 6.1044C40.2164 6.30682 40.1294 6.58736 40.1294 6.94602V11.7188H37.3169V6.94602C37.3169 6.58736 37.2263 6.30682 37.0452 6.1044C36.8641 5.89844 36.6208 5.79545 36.3154 5.79545C36.113 5.79545 35.939 5.84162 35.7934 5.93395C35.6478 6.02628 35.5342 6.15945 35.4525 6.33345C35.3744 6.50391 35.3353 6.7081 35.3353 6.94602V11.7188H32.395Z" fill="#a1a1aa"/>
<path d="M50.9068 8.1392V3.53693H53.8472V11.7188H51.056V10.1634H50.9708C50.7932 10.6854 50.4825 11.0938 50.0386 11.3885C49.5947 11.6797 49.0673 11.8253 48.4566 11.8253C47.8848 11.8253 47.3841 11.6939 46.9544 11.4311C46.5283 11.1683 46.1963 10.8061 45.9583 10.3445C45.724 9.88281 45.605 9.35369 45.6014 8.7571V3.53693H48.5418V8.1392C48.5453 8.54403 48.6483 8.86186 48.8507 9.09268C49.0567 9.32351 49.3443 9.43892 49.7137 9.43892C49.9587 9.43892 50.17 9.38743 50.3475 9.28445C50.5286 9.17791 50.6671 9.02876 50.763 8.837C50.8624 8.64169 50.9104 8.40909 50.9068 8.1392Z" fill="#a1a1aa"/>
<path d="M57.383 7.11648V11.7188H54.4426V3.53693H57.2338V5.09233H57.3191C57.4966 4.57386 57.8091 4.16726 58.2566 3.87251C58.7076 3.57777 59.2331 3.4304 59.8333 3.4304C60.4121 3.4304 60.9146 3.56357 61.3407 3.8299C61.7704 4.09268 62.1025 4.4549 62.3368 4.91655C62.5748 5.3782 62.6919 5.90554 62.6884 6.49858V11.7188H59.748V7.11648C59.7516 6.71165 59.6486 6.39382 59.4391 6.163C59.2331 5.93217 58.9455 5.81676 58.5762 5.81676C58.3347 5.81676 58.1234 5.87003 57.9423 5.97656C57.7647 6.07955 57.628 6.22869 57.5321 6.42401C57.4363 6.61577 57.3865 6.84659 57.383 7.11648Z" fill="#a1a1aa"/>
<path d="M63.2399 11.7188V3.53693H66.1803V11.7188H63.2399ZM64.7101 2.68466C64.3124 2.68466 63.9714 2.55327 63.6874 2.29048C63.4033 2.0277 63.2612 1.71165 63.2612 1.34233C63.2612 0.973011 63.4033 0.65696 63.6874 0.394176C63.9714 0.131392 64.3124 0 64.7101 0C65.1114 0 65.4523 0.131392 65.7328 0.394176C66.0169 0.65696 66.159 0.973011 66.159 1.34233C66.159 1.71165 66.0169 2.0277 65.7328 2.29048C65.4523 2.55327 65.1114 2.68466 64.7101 2.68466Z" fill="#a1a1aa"/>
<path d="M71.6576 3.53693V5.66761H66.267V3.53693H71.6576ZM67.3111 1.5767H70.2514V9.08736C70.2514 9.20099 70.2709 9.29688 70.31 9.375C70.3491 9.44957 70.4094 9.50639 70.4911 9.54545C70.5728 9.58097 70.6775 9.59872 70.8054 9.59872C70.8942 9.59872 70.9971 9.58807 71.1143 9.56676C71.2351 9.54545 71.3238 9.5277 71.3807 9.51349L71.8068 11.5803C71.6754 11.6193 71.4872 11.6673 71.2422 11.7241C71.0007 11.7809 70.713 11.8182 70.3792 11.8359C69.7045 11.8714 69.1381 11.8022 68.68 11.6282C68.2219 11.4506 67.8775 11.1719 67.6466 10.7919C67.4158 10.4119 67.304 9.93608 67.3111 9.36435V1.5767Z" fill="#a1a1aa"/>
<path d="M73.7473 14.7869C73.4099 14.7869 73.0885 14.7603 72.7831 14.707C72.4777 14.6573 72.2096 14.5881 71.9788 14.4993L72.618 12.4112C72.8595 12.4964 73.0797 12.5515 73.2785 12.5763C73.4809 12.6012 73.6532 12.587 73.7952 12.5337C73.9408 12.4805 74.0456 12.3793 74.1095 12.2301L74.1734 12.081L71.297 3.53693H74.3652L75.6862 9.20455H75.7714L77.1137 3.53693H80.2032L77.2203 12.4006C77.0711 12.8516 76.8545 13.2564 76.5704 13.6151C76.2899 13.9773 75.9206 14.2631 75.4625 14.4727C75.0044 14.6822 74.4326 14.7869 73.7473 14.7869Z" fill="#a1a1aa"/>
<path d="M85.9776 4.21875C85.9492 3.86364 85.816 3.58665 85.5781 3.38778C85.3437 3.18892 84.9868 3.08949 84.5074 3.08949C84.202 3.08949 83.9517 3.12678 83.7564 3.20135C83.5646 3.27237 83.4226 3.37003 83.3302 3.49432C83.2379 3.61861 83.19 3.76065 83.1864 3.92045C83.1793 4.05185 83.2024 4.17081 83.2556 4.27734C83.3125 4.38033 83.4012 4.47443 83.522 4.55966C83.6427 4.64134 83.7972 4.71591 83.9854 4.78338C84.1736 4.85085 84.3973 4.91122 84.6566 4.96449L85.5515 5.15625C86.1552 5.28409 86.6718 5.45277 87.1015 5.66229C87.5312 5.8718 87.8828 6.11861 88.1562 6.4027C88.4297 6.68324 88.6303 6.99929 88.7581 7.35085C88.8895 7.70241 88.957 8.08594 88.9605 8.50142C88.957 9.21875 88.7777 9.82599 88.4226 10.3232C88.0674 10.8203 87.5596 11.1985 86.8991 11.4577C86.2422 11.717 85.452 11.8466 84.5287 11.8466C83.5806 11.8466 82.7532 11.7063 82.0465 11.4258C81.3434 11.1452 80.7965 10.7138 80.4059 10.1314C80.0188 9.54545 79.8235 8.79616 79.8199 7.88352H82.6324C82.6502 8.21733 82.7336 8.49787 82.8828 8.72514C83.0319 8.95241 83.2414 9.12465 83.5113 9.24183C83.7848 9.35902 84.1097 9.41761 84.4861 9.41761C84.8022 9.41761 85.0667 9.37855 85.2798 9.30043C85.4929 9.2223 85.6544 9.11399 85.7645 8.9755C85.8746 8.837 85.9314 8.67898 85.935 8.50142C85.9314 8.33452 85.8764 8.18892 85.7699 8.06463C85.6669 7.93679 85.4964 7.82315 85.2585 7.72372C85.0206 7.62074 84.6992 7.52486 84.2944 7.43608L83.2077 7.2017C82.2418 6.99219 81.4801 6.6424 80.9226 6.15234C80.3686 5.65874 80.0934 4.9858 80.0969 4.13352C80.0934 3.44105 80.278 2.83558 80.6509 2.31712C81.0273 1.7951 81.5476 1.38849 82.2116 1.0973C82.8792 0.806108 83.6445 0.660511 84.5074 0.660511C85.3881 0.660511 86.1498 0.807883 86.7926 1.10263C87.4353 1.39737 87.9307 1.81285 88.2787 2.34908C88.6303 2.88175 88.8079 3.50497 88.8114 4.21875H85.9776Z" fill="#a1a1aa"/>
<path d="M93.1715 11.8679C92.2837 11.8679 91.5238 11.6921 90.8917 11.3406C90.2596 10.9854 89.7749 10.4918 89.4375 9.85973C89.1001 9.22408 88.9315 8.48722 88.9315 7.64915C88.9315 6.81108 89.1001 6.07599 89.4375 5.44389C89.7749 4.80824 90.2596 4.31463 90.8917 3.96307C91.5238 3.60795 92.2837 3.4304 93.1715 3.4304C93.9741 3.4304 94.6683 3.57599 95.2543 3.86719C95.8438 4.15483 96.3001 4.56321 96.6232 5.09233C96.9464 5.6179 97.1097 6.2358 97.1133 6.94602H94.386C94.3469 6.51634 94.2227 6.18963 94.0131 5.96591C93.8072 5.73864 93.5408 5.625 93.2141 5.625C92.9585 5.625 92.7347 5.69957 92.543 5.84872C92.3512 5.99432 92.2021 6.21626 92.0955 6.51456C91.989 6.8093 91.9357 7.1804 91.9357 7.62784C91.9357 8.07528 91.989 8.44815 92.0955 8.74645C92.2021 9.04119 92.3512 9.26314 92.543 9.41229C92.7347 9.55788 92.9585 9.63068 93.2141 9.63068C93.4308 9.63068 93.6225 9.58097 93.7894 9.48153C93.9563 9.37855 94.0913 9.2294 94.1942 9.03409C94.3008 8.83523 94.3647 8.59375 94.386 8.30966H97.1133C97.1026 9.03054 96.9375 9.65909 96.6179 10.1953C96.2983 10.728 95.8455 11.1399 95.2596 11.4311C94.6772 11.7223 93.9812 11.8679 93.1715 11.8679Z" fill="#a1a1aa"/>
<path d="M99.7063 11.8466C99.1843 11.8466 98.7226 11.7614 98.3213 11.5909C97.9236 11.4169 97.6111 11.1541 97.3838 10.8026C97.1565 10.451 97.0429 10.0036 97.0429 9.46023C97.0429 9.01278 97.1193 8.63104 97.272 8.31499C97.4247 7.99538 97.6377 7.73438 97.9112 7.53196C98.1846 7.32955 98.5024 7.17507 98.8646 7.06854C99.2304 6.962 99.6246 6.89276 100.047 6.8608C100.505 6.82528 100.873 6.78267 101.15 6.73295C101.43 6.67969 101.633 6.60689 101.757 6.51456C101.881 6.41868 101.943 6.29261 101.943 6.13636V6.11506C101.943 5.90199 101.862 5.73864 101.698 5.625C101.535 5.51136 101.326 5.45455 101.07 5.45455C100.789 5.45455 100.56 5.51669 100.383 5.64098C100.209 5.76172 100.104 5.94815 100.068 6.20028H97.3625C97.398 5.70312 97.5561 5.24503 97.8366 4.82599C98.1207 4.40341 98.5344 4.06605 99.0777 3.81392C99.621 3.55824 100.299 3.4304 101.113 3.4304C101.698 3.4304 102.224 3.49964 102.689 3.63814C103.154 3.77308 103.55 3.96307 103.877 4.2081C104.204 4.44957 104.452 4.73366 104.623 5.06037C104.797 5.38352 104.884 5.73508 104.884 6.11506V11.7188H102.135V10.5682H102.071C101.908 10.8736 101.709 11.1204 101.475 11.3086C101.244 11.4968 100.979 11.6335 100.681 11.7188C100.386 11.804 100.061 11.8466 99.7063 11.8466ZM100.665 9.9929C100.889 9.9929 101.098 9.94673 101.294 9.8544C101.492 9.76207 101.654 9.62891 101.778 9.4549C101.903 9.28089 101.965 9.0696 101.965 8.82102V8.1392C101.887 8.17116 101.803 8.20135 101.714 8.22976C101.629 8.25817 101.537 8.2848 101.437 8.30966C101.342 8.33452 101.239 8.3576 101.128 8.37891C101.022 8.40021 100.91 8.41974 100.793 8.4375C100.566 8.47301 100.379 8.53161 100.234 8.61328C100.092 8.69141 99.985 8.78906 99.914 8.90625C99.8465 9.01989 99.8128 9.14773 99.8128 9.28977C99.8128 9.51705 99.8927 9.69105 100.053 9.81179C100.212 9.93253 100.416 9.9929 100.665 9.9929Z" fill="#a1a1aa"/>
<path d="M108.329 7.11648V11.7188H105.389V3.53693H108.18V5.09233H108.265C108.443 4.57386 108.755 4.16726 109.203 3.87251C109.654 3.57777 110.179 3.4304 110.779 3.4304C111.358 3.4304 111.861 3.56357 112.287 3.8299C112.717 4.09268 113.049 4.4549 113.283 4.91655C113.521 5.3782 113.638 5.90554 113.634 6.49858V11.7188H110.694V7.11648C110.698 6.71165 110.595 6.39382 110.385 6.163C110.179 5.93217 109.892 5.81676 109.522 5.81676C109.281 5.81676 109.069 5.87003 108.888 5.97656C108.711 6.07955 108.574 6.22869 108.478 6.42401C108.382 6.61577 108.333 6.84659 108.329 7.11648Z" fill="#a1a1aa"/>
<defs>
<radialGradient id="paint0_radial_mono" cx="0" cy="0" r="1" gradientUnits="userSpaceOnUse" gradientTransform="translate(56.8173 24.7187) rotate(-90) scale(24.7188 113.635)">
<stop stop-color="#d4d4d8"/>
<stop offset="1" stop-color="#71717a"/>
</radialGradient>
</defs>
</svg>
