<svg width="190" height="24" viewBox="0 0 190 24" fill="none" xmlns="http://www.w3.org/2000/svg">
<path d="M13.0568 13.6202V16.5057C13.0547 16.5671 13.0695 16.628 13.0997 16.6817C13.1297 16.7355 13.174 16.7798 13.2275 16.81C13.2812 16.8403 13.342 16.8554 13.4035 16.8534C13.465 16.8515 13.5249 16.8328 13.5765 16.7993L16.0552 15.352C16.1332 15.3071 16.1981 15.2425 16.2437 15.1648C16.2892 15.0872 16.3139 14.999 16.3151 14.909V12.0262C16.3171 11.9647 16.3023 11.9038 16.2722 11.8502C16.2422 11.7964 16.1979 11.7521 16.1444 11.7218C16.0907 11.6915 16.0299 11.6765 15.9683 11.6784C15.9069 11.6804 15.847 11.6991 15.7954 11.7326L13.3192 13.1772C13.2417 13.2221 13.177 13.2861 13.1314 13.3633C13.0859 13.4404 13.0611 13.5281 13.0594 13.6176" fill="#FF4F20"/>
<path d="M30.6533 4.43457C32.2509 4.43457 33.587 4.81218 34.6618 5.56741C35.6363 6.23906 36.2825 7.14955 36.6002 8.29888C36.655 8.49689 36.5241 8.69426 36.3228 8.73527L33.5231 9.30556C33.322 9.34653 33.1287 9.21501 33.064 9.02022C32.9043 8.53947 32.6309 8.15828 32.2436 7.87664C31.7644 7.51355 31.2197 7.33201 30.6097 7.33201C30.0288 7.33201 29.5568 7.47724 29.1937 7.76771C28.8306 8.04366 28.6491 8.39222 28.6491 8.81341C28.6491 9.45244 29.0412 9.8591 29.8255 10.0333L32.8536 10.7087C35.5259 11.3041 36.8621 12.7202 36.8621 14.9568C36.8621 16.4527 36.2884 17.6146 35.1411 18.4424C33.9937 19.2703 32.5631 19.6842 30.8494 19.6842C29.1501 19.6842 27.705 19.2993 26.5141 18.5296C25.4366 17.8113 24.7734 16.8371 24.5244 15.6071C24.4854 15.4145 24.6171 15.2325 24.81 15.1951L27.8223 14.6103C28.0167 14.5726 28.2044 14.6956 28.2682 14.8832C28.6802 16.0941 29.6059 16.6996 31.0454 16.6996C31.7135 16.6996 32.2364 16.5617 32.614 16.2857C33.0061 16.0098 33.2022 15.6467 33.2022 15.1964C33.2022 14.8479 33.1005 14.5719 32.8972 14.3686C32.7084 14.1653 32.3598 14.0128 31.8515 13.9111L28.8016 13.2576C26.1873 12.6621 24.8802 11.2533 24.8802 9.03126C24.8802 7.62248 25.4103 6.50417 26.4705 5.67633C27.5308 4.84849 28.925 4.43457 30.6533 4.43457Z" fill="white"/>
<path d="M42.8961 8.13818C44.5663 8.13818 45.9824 8.67555 47.1443 9.75029C48.3061 10.8251 48.8871 12.2048 48.8871 13.8895C48.8871 15.5888 48.3061 16.9758 47.1443 18.0505C45.9824 19.1252 44.5663 19.6626 42.8961 19.6626C41.1969 19.6626 39.7591 19.1252 38.5827 18.0505C37.4208 16.9758 36.8398 15.5888 36.8398 13.8895C36.8398 12.2048 37.4208 10.8251 38.5827 9.75029C39.7591 8.67555 41.1969 8.13818 42.8961 8.13818ZM42.8961 16.7216C43.6078 16.7216 44.225 16.4602 44.7479 15.9373C45.2707 15.4 45.5321 14.7174 45.5321 13.8895C45.5321 13.0617 45.2635 12.3863 44.7261 11.8635C44.2032 11.3261 43.5933 11.0574 42.8961 11.0574C42.17 11.0574 41.5382 11.3261 41.0008 11.8635C40.4634 12.3863 40.1948 13.0617 40.1948 13.8895C40.1948 14.7174 40.4562 15.4 40.979 15.9373C41.5164 16.4602 42.1554 16.7216 42.8961 16.7216Z" fill="white"/>
<path d="M48.9102 5.13194C48.9102 4.9272 49.0762 4.76123 49.2809 4.76123H54.6833C57.0797 4.76123 59.0113 5.43657 60.4782 6.78726C61.9451 8.12342 62.6785 9.88076 62.6785 12.0593C62.6785 14.2378 61.9451 16.0024 60.4782 17.3531C59.0113 18.6892 57.0797 19.3573 54.6833 19.3573H49.2809C49.0762 19.3573 48.9102 19.1914 48.9102 18.9866V5.13194ZM52.5048 15.8713C52.5048 16.0761 52.6708 16.242 52.8755 16.242H54.5526C55.9178 16.242 57.0071 15.8644 57.8204 15.1092C58.6482 14.3395 59.0622 13.3228 59.0622 12.0593C59.0622 10.7957 58.6482 9.78636 57.8204 9.03114C57.0071 8.26139 55.9178 7.87652 54.5526 7.87652H52.8755C52.6708 7.87652 52.5048 8.04249 52.5048 8.24723V15.8713Z" fill="white"/>
<path d="M73.7082 16.2638C73.9129 16.2638 74.0789 16.4298 74.0789 16.6345V18.9866C74.0789 19.1914 73.9129 19.3573 73.7082 19.3573H63.0777C62.873 19.3573 62.707 19.1914 62.707 18.9866V5.13194C62.707 4.9272 62.873 4.76123 63.0777 4.76123H73.6428C73.8476 4.76123 74.0135 4.9272 74.0135 5.13194V7.48403C74.0135 7.68877 73.8476 7.85474 73.6428 7.85474H66.6723C66.4675 7.85474 66.3015 8.02071 66.3015 8.22544V10.229C66.3015 10.4337 66.4675 10.5997 66.6723 10.5997H73.011C73.2158 10.5997 73.3818 10.7656 73.3818 10.9704V13.1482C73.3818 13.3529 73.2158 13.5189 73.011 13.5189H66.6723C66.4675 13.5189 66.3015 13.6849 66.3015 13.8896V15.8931C66.3015 16.0978 66.4675 16.2638 66.6723 16.2638H73.7082Z" fill="white"/>
<path d="M84.277 19.3573C84.1481 19.3573 84.0286 19.2904 83.9612 19.1806L81.3367 14.9066C81.1917 14.6705 80.8486 14.6711 80.7044 14.9076L78.1 19.1796C78.0327 19.29 77.9126 19.3573 77.7834 19.3573H74.4122C74.1211 19.3573 73.9436 19.0371 74.0979 18.7901L78.1957 12.2336C78.2707 12.1136 78.271 11.9613 78.1961 11.8412L74.14 5.3279C73.9862 5.08097 74.1637 4.76123 74.4546 4.76123H77.8263C77.9559 4.76123 78.0762 4.82893 78.1434 4.93977L80.7039 9.16365C80.8479 9.40125 81.1925 9.4018 81.3373 9.16467L83.9177 4.93875C83.9851 4.82849 84.1048 4.76123 84.234 4.76123H87.6067C87.8976 4.76123 88.0751 5.08097 87.9214 5.3279L83.8652 11.8412C83.7904 11.9613 83.7905 12.1136 83.8655 12.2336L87.9633 18.7901C88.1177 19.0371 87.9401 19.3573 87.649 19.3573H84.277Z" fill="white"/>
<path fill-rule="evenodd" clip-rule="evenodd" d="M10.7504 23.9321L20.6924 18.1646C20.7692 18.1199 20.833 18.0559 20.8774 17.9788C20.9217 17.9018 20.9451 17.8144 20.945 17.7255L20.9211 6.2316C20.9209 6.14263 20.8973 6.05529 20.8526 5.97834C20.808 5.90138 20.7438 5.83751 20.6668 5.79313L10.7009 0.0679233C10.6239 0.0234259 10.5364 0 10.4474 0C10.3585 0 10.271 0.0234259 10.194 0.0679233L0.25201 5.83602C0.175051 5.88052 0.111215 5.94456 0.066962 6.02167C0.0227092 6.09877 -0.000389725 6.1862 4.97469e-06 6.27509L0.0238349 17.7689C0.0238908 17.8579 0.0474498 17.9452 0.0921226 18.0222C0.136795 18.099 0.200997 18.1628 0.278223 18.2069L10.244 23.9321C10.321 23.9766 10.4083 24 10.4972 24C10.5862 24 10.6734 23.9766 10.7504 23.9321ZM13.5594 10.2405L17.9316 7.67333C17.9698 7.65079 18.0013 7.61868 18.0231 7.58018C18.0449 7.54168 18.0563 7.49814 18.0562 7.45388C18.056 7.40962 18.0442 7.36617 18.0221 7.32785C18 7.28954 17.9681 7.25768 17.9298 7.23545L10.7063 3.08601C10.6294 3.04152 10.542 3.01808 10.4531 3.01808C10.3642 3.01808 10.2769 3.04152 10.1999 3.08601L2.86678 7.33911C2.78975 7.38373 2.72583 7.44786 2.68148 7.52505C2.63714 7.60224 2.61392 7.68975 2.61418 7.77878L2.62074 10.2089C2.62079 10.2978 2.64429 10.385 2.68884 10.4619C2.7334 10.5388 2.79744 10.6026 2.87452 10.6467L7.61196 13.3705C7.68924 13.4149 7.75346 13.4788 7.79813 13.556C7.84279 13.633 7.86633 13.7205 7.86635 13.8096V16.2468C7.8663 16.2765 7.85847 16.3056 7.84366 16.3311C7.82884 16.3568 7.80755 16.3781 7.78192 16.3929C7.75629 16.4078 7.72722 16.4157 7.69759 16.4158C7.66798 16.4158 7.63886 16.4081 7.61315 16.3934L5.39755 15.1203C5.34623 15.0902 5.30378 15.0471 5.27449 14.9953C5.24521 14.9435 5.23011 14.8849 5.23074 14.8253L5.22775 14.0259C5.2274 13.9362 5.20328 13.8482 5.15786 13.7708C5.11244 13.6935 5.04734 13.6296 4.96919 13.5856L2.99487 12.4781C2.95632 12.4565 2.91278 12.4453 2.86858 12.4457C2.82438 12.4461 2.78105 12.4581 2.74292 12.4805C2.70479 12.5028 2.67317 12.5348 2.65121 12.5731C2.62925 12.6115 2.61771 12.6549 2.61775 12.6991V14.2177L2.62311 16.2588C2.62317 16.3477 2.64673 16.435 2.6914 16.5119C2.73608 16.5889 2.80028 16.6526 2.8775 16.6966L9.98366 20.7669C10.0351 20.7963 10.0933 20.8117 10.1526 20.8115C10.2118 20.8114 10.27 20.7956 10.3213 20.7659C10.3726 20.7361 10.4151 20.6934 10.4446 20.642C10.4741 20.5906 10.4896 20.5324 10.4894 20.4731L10.4776 12.2821C10.4774 12.1931 10.4537 12.1057 10.4091 12.0287C10.3644 11.9518 10.3003 11.888 10.2231 11.8436L5.51074 9.13471C5.48499 9.11995 5.4636 9.09866 5.44872 9.07298C5.43384 9.04729 5.42601 9.01814 5.42601 8.98845C5.42601 8.95878 5.43384 8.92962 5.44872 8.90394C5.4636 8.87826 5.48499 8.85697 5.51074 8.8422L10.2089 6.12437C10.2859 6.07987 10.3734 6.05645 10.4624 6.05645C10.5514 6.05645 10.6388 6.07987 10.7158 6.12437L12.8409 7.34686C12.8666 7.36162 12.888 7.38292 12.9029 7.4086C12.9178 7.43429 12.9256 7.46343 12.9256 7.49312C12.9256 7.52279 12.9178 7.55195 12.9029 7.57763C12.888 7.60331 12.8666 7.6246 12.8409 7.63937L10.9678 8.71888C10.9286 8.74156 10.8961 8.77438 10.8738 8.81392C10.8515 8.85346 10.8403 8.89826 10.8412 8.94362C10.8422 8.98899 10.8554 9.03326 10.8793 9.0718C10.9033 9.11035 10.9371 9.14175 10.9774 9.16272L13.0697 10.2529C13.1456 10.2926 13.2305 10.3121 13.3162 10.3099C13.4018 10.3077 13.4855 10.2838 13.5594 10.2405Z" fill="white"/>
<path d="M13.0566 13.6131L13.0608 16.4811C13.0609 16.5403 13.0766 16.5985 13.1062 16.6499C13.1359 16.7012 13.1786 16.7438 13.23 16.7734C13.2814 16.8029 13.3397 16.8184 13.3989 16.8184C13.4582 16.8183 13.5164 16.8026 13.5677 16.7729L16.046 15.3355C16.1229 15.2906 16.1866 15.2265 16.2309 15.1493C16.2751 15.0721 16.2983 14.9847 16.2981 14.8958L16.2921 12.0308C16.292 11.9714 16.2763 11.9132 16.2467 11.862C16.217 11.8107 16.1743 11.7681 16.1229 11.7385C16.0715 11.7088 16.0132 11.6933 15.954 11.6934C15.8947 11.6934 15.8365 11.7091 15.7852 11.7388L13.3092 13.174C13.2321 13.2185 13.1682 13.2825 13.1239 13.3596C13.0795 13.4367 13.0563 13.5241 13.0566 13.6131Z" fill="#FF4F20"/>
<path d="M109.193 19.2058C108.042 19.2058 107.055 18.9691 106.231 18.4956C105.412 18.0221 104.782 17.364 104.342 16.5212C103.902 15.6736 103.682 14.6935 103.682 13.5808C103.682 12.4634 103.902 11.4833 104.342 10.6405C104.787 9.79295 105.419 9.13244 106.238 8.65896C107.062 8.18547 108.045 7.94873 109.186 7.94873C110.194 7.94873 111.073 8.13102 111.821 8.49561C112.574 8.86019 113.161 9.37629 113.582 10.0439C113.95 10.6166 114.168 11.2759 114.236 12.0218C114.254 12.2179 114.094 12.3805 113.898 12.3805H111.322C111.145 12.3805 110.998 12.2472 110.96 12.074C110.868 11.6591 110.696 11.3233 110.443 11.0666C110.135 10.7494 109.733 10.5908 109.236 10.5908C108.833 10.5908 108.48 10.7044 108.177 10.9317C107.874 11.1542 107.638 11.4857 107.467 11.926C107.301 12.3616 107.219 12.9014 107.219 13.5453C107.219 14.1893 107.301 14.7338 107.467 15.1788C107.638 15.6192 107.874 15.953 108.177 16.1803C108.48 16.4028 108.833 16.5141 109.236 16.5141C109.558 16.5141 109.842 16.4454 110.088 16.3081C110.339 16.1708 110.545 15.9696 110.706 15.7044C110.822 15.5102 110.907 15.2865 110.961 15.0334C110.999 14.8591 111.146 14.7243 111.324 14.7243H113.894C114.092 14.7243 114.252 14.8892 114.233 15.0866C114.159 15.8365 113.942 16.5018 113.582 17.0823C113.17 17.7546 112.59 18.2778 111.842 18.6519C111.099 19.0212 110.216 19.2058 109.193 19.2058Z" fill="#FF4F20"/>
<path d="M118.11 19.1845C117.414 19.1845 116.796 19.0685 116.256 18.8365C115.721 18.5998 115.297 18.2447 114.985 17.7712C114.677 17.293 114.523 16.694 114.523 15.9743C114.523 15.3682 114.629 14.8569 114.843 14.4402C115.056 14.0235 115.349 13.685 115.723 13.4246C116.097 13.1642 116.528 12.9677 117.016 12.8351C117.503 12.6978 118.024 12.6055 118.578 12.5581C119.199 12.5013 119.698 12.4421 120.077 12.3805C120.456 12.3143 120.73 12.2219 120.901 12.1036C121.076 11.9805 121.164 11.8076 121.164 11.5851V11.5496C121.164 11.185 121.038 10.9033 120.787 10.7044C120.536 10.5055 120.198 10.4061 119.771 10.4061C119.312 10.4061 118.943 10.5055 118.664 10.7044C118.463 10.8471 118.315 11.0289 118.219 11.2496C118.152 11.4051 118.008 11.5239 117.838 11.5179L115.317 11.4284C115.109 11.4211 114.952 11.2345 115.001 11.0323C115.124 10.522 115.343 10.0576 115.659 9.63907C116.057 9.1135 116.602 8.70157 117.293 8.40328C117.989 8.10025 118.825 7.94873 119.8 7.94873C120.496 7.94873 121.137 8.03159 121.725 8.19731C122.312 8.35829 122.823 8.59504 123.259 8.90754C123.694 9.2153 124.03 9.59409 124.267 10.0439C124.509 10.4937 124.629 11.0074 124.629 11.5851V18.6499C124.629 18.8432 124.473 18.9999 124.279 18.9999H121.712C121.519 18.9999 121.362 18.8432 121.362 18.6499V17.5331C121.362 17.5038 121.339 17.48 121.309 17.48C121.29 17.48 121.271 17.4909 121.262 17.5083C121.07 17.8653 120.827 18.1684 120.531 18.4175C120.233 18.6732 119.88 18.8649 119.473 18.9928C119.071 19.1206 118.616 19.1845 118.11 19.1845ZM119.182 16.9118C119.556 16.9118 119.892 16.836 120.191 16.6845C120.494 16.533 120.735 16.3247 120.915 16.0595C121.095 15.7896 121.185 15.4771 121.185 15.122V14.4747C121.185 14.2975 120.992 14.1762 120.823 14.2271C120.685 14.2698 120.534 14.31 120.368 14.3479C120.202 14.3858 120.032 14.4189 119.857 14.4473C119.682 14.4757 119.513 14.5018 119.352 14.5254C119.026 14.5775 118.746 14.658 118.514 14.7669C118.287 14.8758 118.112 15.0179 117.989 15.193C117.87 15.3635 117.811 15.5671 117.811 15.8038C117.811 16.1637 117.939 16.4383 118.195 16.6277C118.455 16.8171 118.784 16.9118 119.182 16.9118Z" fill="#FF4F20"/>
<path d="M129.226 12.7783V18.6499C129.226 18.8432 129.069 18.9999 128.876 18.9999H126.103C125.91 18.9999 125.753 18.8432 125.753 18.6499V8.44078C125.753 8.24748 125.91 8.09078 126.103 8.09078H128.706C128.899 8.09078 129.056 8.24748 129.056 8.44078V10.0227C129.056 10.0619 129.087 10.0936 129.127 10.0936C129.156 10.0936 129.183 10.0748 129.194 10.0469C129.437 9.40154 129.843 8.89392 130.412 8.52401C130.994 8.14049 131.688 7.94873 132.493 7.94873C133.26 7.94873 133.925 8.12155 134.489 8.4672C135.057 8.8081 135.497 9.28632 135.81 9.90185C136.127 10.5127 136.283 11.2276 136.279 12.0467V18.6499C136.279 18.8432 136.122 18.9999 135.929 18.9999H133.156C132.962 18.9999 132.806 18.8432 132.806 18.6499V12.7286C132.81 12.1225 132.656 11.649 132.344 11.3081C132.036 10.9672 131.608 10.7967 131.058 10.7967C130.694 10.7967 130.372 10.8772 130.093 11.0382C129.818 11.1945 129.605 11.4194 129.453 11.7129C129.307 12.0065 129.231 12.3616 129.226 12.7783Z" fill="#FF4F20"/>
<path d="M97.1358 4C98.7334 4 100.069 4.37761 101.144 5.13284C102.119 5.80449 102.765 6.71498 103.083 7.86431C103.137 8.06232 103.007 8.25969 102.805 8.3007L100.006 8.87099C99.8045 8.91196 99.6112 8.78044 99.5465 8.58565C99.3868 8.1049 99.1134 7.72371 98.7261 7.44207C98.2469 7.07898 97.7022 6.89744 97.0922 6.89744C96.5113 6.89744 96.0393 7.04267 95.6762 7.33314C95.3131 7.60909 95.1316 7.95765 95.1316 8.37884C95.1316 9.01787 95.5237 9.42453 96.308 9.59877L99.3361 10.2742C102.008 10.8696 103.345 12.2857 103.345 14.5223C103.345 16.0182 102.771 17.1801 101.624 18.0079C100.476 18.8358 99.0456 19.2497 97.3319 19.2497C95.6326 19.2497 94.1875 18.8648 92.9966 18.0951C91.9191 17.3768 91.2559 16.4026 91.0069 15.1726C90.9679 14.98 91.0996 14.798 91.2925 14.7606L94.3048 14.1758C94.4992 14.1381 94.6869 14.2611 94.7507 14.4487C95.1627 15.6596 96.0884 16.2651 97.5279 16.2651C98.196 16.2651 98.7189 16.1272 99.0965 15.8512C99.4886 15.5753 99.6847 15.2122 99.6847 14.7619C99.6847 14.4134 99.583 14.1374 99.3797 13.9341C99.1909 13.7308 98.8423 13.5783 98.334 13.4766L95.2841 12.8231C92.6698 12.2276 91.3627 10.8188 91.3627 8.59669C91.3627 7.18791 91.8928 6.0696 92.953 5.24176C94.0133 4.41392 95.4075 4 97.1358 4Z" fill="#FF4F20"/>
<rect x="140" y="8" width="25" height="11" rx="5.5" fill="url(#paint0_radial_80_3536)"/>
<path d="M145.559 16V10.9091H147.424C147.785 10.9091 148.084 10.9687 148.321 11.0881C148.558 11.2057 148.735 11.3656 148.853 11.5678C148.971 11.7683 149.029 11.9946 149.029 12.2464C149.029 12.4586 148.991 12.6375 148.913 12.7834C148.835 12.9276 148.73 13.0436 148.599 13.1314C148.47 13.2176 148.328 13.2805 148.172 13.3203V13.37C148.341 13.3783 148.506 13.433 148.667 13.5341C148.829 13.6335 148.963 13.7752 149.069 13.9592C149.175 14.1431 149.228 14.3668 149.228 14.6303C149.228 14.8905 149.167 15.1242 149.044 15.3313C148.923 15.5368 148.736 15.7 148.483 15.821C148.229 15.9403 147.905 16 147.511 16H145.559ZM146.327 15.3413H147.436C147.804 15.3413 148.067 15.27 148.227 15.1275C148.386 14.985 148.465 14.8068 148.465 14.593C148.465 14.4323 148.425 14.2848 148.343 14.1506C148.262 14.0163 148.146 13.9094 147.995 13.8299C147.846 13.7504 147.669 13.7106 147.463 13.7106H146.327V15.3413ZM146.327 13.1115H147.357C147.529 13.1115 147.684 13.0784 147.821 13.0121C147.961 12.9458 148.071 12.853 148.152 12.7337C148.235 12.6127 148.276 12.4702 148.276 12.3061C148.276 12.0956 148.203 11.9192 148.055 11.7766C147.908 11.6341 147.681 11.5629 147.376 11.5629H146.327V13.1115ZM151.375 16.0771C150.999 16.0771 150.675 15.9967 150.403 15.8359C150.133 15.6735 149.924 15.4457 149.777 15.1523C149.631 14.8574 149.558 14.5118 149.558 14.1158C149.558 13.7247 149.631 13.38 149.777 13.0817C149.924 12.7834 150.13 12.5505 150.393 12.3832C150.659 12.2158 150.968 12.1321 151.323 12.1321C151.539 12.1321 151.747 12.1677 151.95 12.239C152.152 12.3103 152.333 12.4221 152.494 12.5746C152.655 12.727 152.781 12.9251 152.874 13.1687C152.967 13.4106 153.013 13.7048 153.013 14.0511V14.3146H149.978V13.7578H152.285C152.285 13.5623 152.245 13.3891 152.166 13.2383C152.086 13.0858 151.974 12.9657 151.83 12.8778C151.688 12.79 151.52 12.7461 151.328 12.7461C151.119 12.7461 150.937 12.7975 150.781 12.9002C150.627 13.0013 150.508 13.1339 150.423 13.2979C150.34 13.4603 150.299 13.6368 150.299 13.8274V14.2624C150.299 14.5176 150.344 14.7347 150.433 14.9137C150.524 15.0927 150.651 15.2294 150.814 15.3239C150.976 15.4167 151.166 15.4631 151.383 15.4631C151.524 15.4631 151.652 15.4432 151.768 15.4034C151.884 15.362 151.984 15.3007 152.069 15.2195C152.153 15.1383 152.218 15.038 152.263 14.9187L152.966 15.0455C152.91 15.2526 152.809 15.4341 152.663 15.5898C152.519 15.744 152.337 15.8641 152.119 15.9503C151.901 16.0348 151.654 16.0771 151.375 16.0771ZM155.27 12.1818V12.7784H153.185V12.1818H155.27ZM153.744 11.267H154.487V14.8789C154.487 15.0231 154.509 15.1316 154.552 15.2045C154.595 15.2758 154.651 15.3247 154.719 15.3512C154.788 15.3761 154.864 15.3885 154.945 15.3885C155.004 15.3885 155.057 15.3844 155.101 15.3761C155.146 15.3678 155.181 15.3612 155.206 15.3562L155.34 15.9702C155.297 15.9867 155.236 16.0033 155.156 16.0199C155.077 16.0381 154.977 16.0481 154.858 16.0497C154.662 16.053 154.48 16.0182 154.311 15.9453C154.142 15.8724 154.005 15.7597 153.901 15.6072C153.796 15.4548 153.744 15.2634 153.744 15.033V11.267ZM156.854 16.0845C156.612 16.0845 156.393 16.0398 156.198 15.9503C156.002 15.8591 155.847 15.7274 155.733 15.555C155.62 15.3827 155.564 15.1714 155.564 14.9212C155.564 14.7057 155.605 14.5284 155.688 14.3892C155.771 14.25 155.883 14.1398 156.024 14.0586C156.164 13.9774 156.322 13.9161 156.496 13.8746C156.67 13.8332 156.847 13.8017 157.028 13.7802C157.256 13.7537 157.442 13.7321 157.585 13.7156C157.727 13.6973 157.831 13.6683 157.895 13.6286C157.96 13.5888 157.992 13.5241 157.992 13.4347V13.4173C157.992 13.2002 157.931 13.032 157.808 12.9126C157.687 12.7933 157.507 12.7337 157.266 12.7337C157.016 12.7337 156.819 12.7892 156.675 12.9002C156.532 13.0096 156.434 13.1314 156.379 13.2656L155.68 13.1065C155.763 12.8745 155.884 12.6873 156.043 12.5447C156.204 12.4006 156.389 12.2962 156.598 12.2315C156.807 12.1652 157.026 12.1321 157.256 12.1321C157.409 12.1321 157.571 12.1503 157.741 12.1868C157.914 12.2216 158.074 12.2862 158.223 12.3807C158.374 12.4751 158.498 12.6102 158.594 12.7859C158.69 12.9599 158.738 13.1861 158.738 13.4645V16H158.012V15.478H157.982C157.934 15.5741 157.862 15.6686 157.766 15.7614C157.67 15.8542 157.546 15.9312 157.396 15.9925C157.245 16.0539 157.064 16.0845 156.854 16.0845ZM157.015 15.4879C157.221 15.4879 157.396 15.4473 157.542 15.3661C157.69 15.2849 157.802 15.1789 157.878 15.0479C157.956 14.9154 157.995 14.7737 157.995 14.6229V14.1307C157.968 14.1572 157.917 14.1821 157.841 14.2053C157.766 14.2268 157.681 14.2459 157.585 14.2624C157.488 14.2773 157.395 14.2914 157.304 14.3047C157.213 14.3163 157.136 14.3262 157.075 14.3345C156.931 14.3527 156.799 14.3834 156.68 14.4265C156.562 14.4696 156.468 14.5317 156.396 14.6129C156.327 14.6925 156.292 14.7985 156.292 14.9311C156.292 15.1151 156.36 15.2543 156.496 15.3487C156.632 15.4415 156.805 15.4879 157.015 15.4879Z" fill="white"/>
<defs>
<radialGradient id="paint0_radial_80_3536" cx="0" cy="0" r="1" gradientUnits="userSpaceOnUse" gradientTransform="translate(152.5 19) rotate(-90) scale(11 25)">
<stop stop-color="#5C9FFD"/>
<stop offset="1" stop-color="#205DB3"/>
</radialGradient>
</defs>
</svg>
