<svg width="1298" height="343" viewBox="0 0 1298 343" fill="none" xmlns="http://www.w3.org/2000/svg">
<path d="M1191.77 339.054L1130.54 339.055L1035.64 134.045L938.604 339.055L876 339.054L1035.64 0.476562L1191.77 339.054ZM1076.55 273.751H994.278L1035.41 183.001L1076.55 273.751Z" fill="url(#paint0_linear_1375_5885)" fill-opacity="0.49"/>
<path d="M1298 0.00146484V340.001H1242V0.000488281L1298 0.00146484Z" fill="url(#paint1_linear_1375_5885)" fill-opacity="0.49"/>
<path d="M130.304 0.0576172C195.036 1.9619 246.902 52.8262 246.902 115.298C246.902 178.976 198.079 229.999 131.605 229.999V230H55.8428V339.531H0V0H130.304V0.0576172ZM130.304 60.6367H55.8428V177H129.923V176.996C162.304 176.827 185.926 150.689 185.926 118.672C185.925 87.6448 161.31 62.2932 130.304 60.6025V60.6367Z" fill="url(#paint2_linear_1375_5885)" fill-opacity="0.49"/>
<path d="M593 0L648.363 0V202.5L782 0L841.5 0L721 179.5L841.5 343H777.5L678.5 202.5L648.363 202.5V257.25V283.058V343H593L593 0Z" fill="url(#paint3_linear_1375_5885)" fill-opacity="0.49"/>
<path d="M527 223H526.831C523.451 288.186 469.527 340 403.5 340C337.473 340 283.549 288.186 280.169 223H280V0.000488281L336 19.5005V222.302C336.037 222.328 336.073 222.354 336.11 222.379C338.12 257.853 367.523 286 403.5 286C440.779 286 471 255.78 471 218.5C471 218.334 470.997 218.167 470.996 218C470.997 218 470.999 217.998 471 217.998V19.2593L527 0.000488281V223Z" fill="url(#paint4_linear_1375_5885)" fill-opacity="0.49"/>
<defs>
<linearGradient id="paint0_linear_1375_5885" x1="1033.91" y1="339" x2="1033.91" y2="-1.11014e-05" gradientUnits="userSpaceOnUse">
<stop stop-color="#66AFDB" stop-opacity="0"/>
<stop offset="1" stop-color="#375E75"/>
</linearGradient>
<linearGradient id="paint1_linear_1375_5885" x1="1279" y1="330.501" x2="1279" y2="5.00099" gradientUnits="userSpaceOnUse">
<stop stop-color="#66AFDB" stop-opacity="0"/>
<stop offset="1" stop-color="#375E75"/>
</linearGradient>
<linearGradient id="paint2_linear_1375_5885" x1="123" y1="0" x2="123" y2="340" gradientUnits="userSpaceOnUse">
<stop stop-color="#375E75"/>
<stop offset="1" stop-color="#375E75" stop-opacity="0"/>
</linearGradient>
<linearGradient id="paint3_linear_1375_5885" x1="749" y1="392" x2="749" y2="49" gradientUnits="userSpaceOnUse">
<stop stop-color="#66AFDB" stop-opacity="0"/>
<stop offset="1" stop-color="#375E75"/>
</linearGradient>
<linearGradient id="paint4_linear_1375_5885" x1="403.5" y1="0.000488281" x2="403.5" y2="340" gradientUnits="userSpaceOnUse">
<stop stop-color="#375E75"/>
<stop offset="1" stop-color="#6693AE" stop-opacity="0"/>
</linearGradient>
</defs>
</svg>
