<svg width="374" height="374" viewBox="0 0 374 374" fill="none" xmlns="http://www.w3.org/2000/svg">
<g filter="url(#filter0_d_1378_6697)">
<path d="M230.911 313.821H142.151L186.531 216.827L230.911 313.821Z" stroke="#8F8F8F" stroke-width="1.5"/>
<mask id="path-2-inside-1_1378_6697" fill="white">
<path d="M369.062 365.063L298.277 365.064L188.56 144.017V144.016L76.376 365.064L4 365.063L188.56 0L369.062 365.063Z"/>
</mask>
<path d="M369.062 365.063L369.063 366.563L371.477 366.563L370.407 364.399L369.062 365.063ZM298.277 365.064L296.934 365.731L297.347 366.564L298.277 366.564L298.277 365.064ZM188.56 144.017H187.06V144.368L187.216 144.683L188.56 144.017ZM188.56 144.016H190.06L187.222 143.337L188.56 144.016ZM76.376 365.064L76.376 366.564L77.2968 366.564L77.7136 365.743L76.376 365.064ZM4 365.063L2.66135 364.387L1.56089 366.563L3.99998 366.563L4 365.063ZM188.56 0L189.904 -0.664836L188.574 -3.35414L187.221 -0.676762L188.56 0ZM369.062 365.063L369.062 363.563L298.277 363.564L298.277 365.064L298.277 366.564L369.063 366.563L369.062 365.063ZM298.277 365.064L299.621 364.398L189.903 143.35L188.56 144.017L187.216 144.683L296.934 365.731L298.277 365.064ZM188.56 144.017H190.06V144.016H188.56H187.06V144.017H188.56ZM188.56 144.016L187.222 143.337L75.0384 364.386L76.376 365.064L77.7136 365.743L189.897 144.694L188.56 144.016ZM76.376 365.064L76.376 363.564L4.00002 363.563L4 365.063L3.99998 366.563L76.376 366.564L76.376 365.064ZM4 365.063L5.33865 365.74L189.898 0.676762L188.56 0L187.221 -0.676762L2.66135 364.387L4 365.063ZM188.56 0L187.215 0.664836L367.718 365.728L369.062 365.063L370.407 364.399L189.904 -0.664836L188.56 0Z" fill="#8F8F8F" mask="url(#path-2-inside-1_1378_6697)"/>
</g>
<defs>
<filter id="filter0_d_1378_6697" x="0" y="0" width="373.062" height="373.064" filterUnits="userSpaceOnUse" color-interpolation-filters="sRGB">
<feFlood flood-opacity="0" result="BackgroundImageFix"/>
<feColorMatrix in="SourceAlpha" type="matrix" values="0 0 0 0 0 0 0 0 0 0 0 0 0 0 0 0 0 0 127 0" result="hardAlpha"/>
<feOffset dy="4"/>
<feGaussianBlur stdDeviation="2"/>
<feComposite in2="hardAlpha" operator="out"/>
<feColorMatrix type="matrix" values="0 0 0 0 0 0 0 0 0 0 0 0 0 0 0 0 0 0 0.25 0"/>
<feBlend mode="normal" in2="BackgroundImageFix" result="effect1_dropShadow_1378_6697"/>
<feBlend mode="normal" in="SourceGraphic" in2="effect1_dropShadow_1378_6697" result="shape"/>
</filter>
</defs>
</svg>
